<svg width="122" height="122" viewBox="0 0 122 122" fill="none" xmlns="http://www.w3.org/2000/svg">
<path d="M48.2129 84.5181H66.4175C69.2667 84.5181 71.5784 84.5181 71.5784 84.5181V53.2569C71.5784 50.4064 69.268 48.0947 66.4175 48.0947H26.2656C23.4138 48.0947 21.1047 50.4064 21.1047 53.2569V84.5181C21.1047 84.5181 24.3911 84.5181 27.2428 84.5181" stroke="black" stroke-width="2" stroke-miterlimit="10" stroke-linecap="round" stroke-linejoin="round"/>
<path d="M95.315 84.5181H97.9482C100.8 84.5181 101.388 84.5181 101.388 84.5181C101.388 84.5181 101.388 75.3744 101.388 74.3883C101.388 73.4021 97.68 63.6612 96.2211 60.1435C94.766 56.6258 93.9133 54.9801 91.0577 54.9801H71.5784C71.5784 54.9801 71.5784 57.293 71.5784 60.1435V84.5181C71.5784 84.5181 72.0816 84.5181 74.3437 84.5181" stroke="black" stroke-width="2" stroke-miterlimit="10" stroke-linecap="round" stroke-linejoin="round"/>
<path d="M17.6595 84.5181H21.1047" stroke="black" stroke-width="2" stroke-miterlimit="10" stroke-linecap="round"/>
<path d="M100.895 84.5181H104.34" stroke="black" stroke-width="2" stroke-miterlimit="10" stroke-linecap="round"/>
<path d="M99.7159 69.7498H87.6875" stroke="black" stroke-width="2" stroke-miterlimit="10" stroke-linecap="round"/>
<path d="M37.4438 90.9701C41.0072 90.9701 43.8958 88.0814 43.8958 84.5181C43.8958 80.9547 41.0072 78.066 37.4438 78.066C33.8805 78.066 30.9918 80.9547 30.9918 84.5181C30.9918 88.0814 33.8805 90.9701 37.4438 90.9701Z" stroke="black" stroke-width="2" stroke-miterlimit="10" stroke-linecap="round"/>
<path d="M84.9793 90.9701C88.5427 90.9701 91.4314 88.0814 91.4314 84.5181C91.4314 80.9547 88.5427 78.066 84.9793 78.066C81.416 78.066 78.5273 80.9547 78.5273 84.5181C78.5273 88.0814 81.416 90.9701 84.9793 90.9701Z" stroke="black" stroke-width="2" stroke-miterlimit="10" stroke-linecap="round"/>
</svg>
