<svg width="134" height="134" viewBox="0 0 134 134" fill="none" xmlns="http://www.w3.org/2000/svg">
<circle cx="67" cy="67" r="67" fill="none" fill-opacity="0.83"/>
<path d="M80.1442 84.1364C79.8831 84.1365 79.6261 84.0728 79.3953 83.951L68.5005 78.2223L57.6051 83.951C57.3393 84.0907 57.0398 84.1533 56.7403 84.1317C56.4408 84.1101 56.1534 84.0051 55.9104 83.8287C55.6675 83.6523 55.4787 83.4114 55.3655 83.1334C55.2522 82.8553 55.219 82.5511 55.2696 82.2551L57.3505 70.122L48.5358 61.5297C48.3209 61.3201 48.1689 61.0546 48.097 60.7631C48.0251 60.4717 48.0362 60.1659 48.129 59.8805C48.2218 59.595 48.3926 59.3411 48.6221 59.1477C48.8516 58.9542 49.1307 58.8288 49.4278 58.7856L61.6097 57.0143L67.057 45.9766C67.6008 44.8765 69.4004 44.8765 69.9442 45.9766L75.3915 57.0143L87.5726 58.7856C87.8697 58.8288 88.1488 58.9542 88.3783 59.1477C88.6078 59.3411 88.7786 59.595 88.8714 59.8805C88.9642 60.1659 88.9753 60.4717 88.9034 60.7631C88.8315 61.0546 88.6795 61.3201 88.4645 61.5297L79.6499 70.122L81.7308 82.2551C81.7701 82.4861 81.7586 82.7229 81.6971 82.949C81.6355 83.1751 81.5253 83.385 81.3743 83.5641C81.2232 83.7432 81.0349 83.8872 80.8224 83.9861C80.61 84.0849 80.3785 84.1362 80.1442 84.1364L80.1442 84.1364ZM53.118 61.5015L60.2038 68.4089C60.3904 68.5911 60.53 68.8158 60.6106 69.0638C60.6912 69.3118 60.7104 69.5757 60.6666 69.8328L58.9936 79.5849L67.7516 74.98C67.9823 74.8577 68.2394 74.7937 68.5005 74.7937C68.7616 74.7937 69.0188 74.8577 69.2494 74.98L78.0067 79.5849L76.3345 69.8328C76.2907 69.5757 76.3099 69.3118 76.3905 69.0638C76.4711 68.8158 76.6107 68.5911 76.7973 68.4089L83.8823 61.5015L74.0909 60.0775C73.8327 60.0401 73.5875 59.9404 73.3764 59.787C73.1653 59.6337 72.9947 59.4314 72.8792 59.1974L68.5005 50.3254L64.1219 59.1975C64.0064 59.4315 63.8358 59.6338 63.6247 59.7871C63.4136 59.9405 63.1684 60.0402 62.9102 60.0776L53.118 61.5015Z" fill="black"/>
<path d="M68.5005 95.6299C52.4382 95.6299 39.3707 82.5616 39.3707 66.4993C39.3707 50.437 52.4382 37.3704 68.5005 37.3704C84.5629 37.3704 97.6304 50.4371 97.6304 66.4994C97.6304 82.5617 84.5628 95.6299 68.5005 95.6299ZM68.5005 40.589C63.3758 40.589 58.3661 42.1087 54.105 44.9559C49.8439 47.8031 46.5229 51.8499 44.5617 56.5845C42.6006 61.3192 42.0875 66.5291 43.0874 71.5554C44.0872 76.5817 46.5551 81.1986 50.1789 84.8223C53.8027 88.446 58.4197 90.9137 63.446 91.9134C68.4723 92.9131 73.6822 92.3999 78.4168 90.4386C83.1515 88.4773 87.1982 85.1561 90.0452 80.895C92.8923 76.6338 94.4118 71.6241 94.4116 66.4993C94.4036 59.6298 91.671 53.044 86.8135 48.1866C81.9559 43.3292 75.37 40.5969 68.5005 40.5891V40.589Z" fill="black"/>
<path d="M76.5238 107.449C75.5232 107.448 74.5396 107.189 73.6681 106.698L69.7728 104.508C69.3842 104.29 68.9461 104.176 68.5005 104.176C68.055 104.176 67.6169 104.29 67.2283 104.508L63.3306 106.698C62.0732 107.408 60.5961 107.624 59.188 107.303C57.78 106.982 56.5422 106.147 55.7167 104.962L53.1518 101.297C52.8935 100.936 52.5484 100.646 52.1483 100.453C51.7482 100.261 51.306 100.172 50.8626 100.196L46.396 100.471C44.9555 100.566 43.5312 100.12 42.4028 99.2195C41.2744 98.3189 40.5234 97.0291 40.2972 95.6032L39.5766 91.19C39.5063 90.7493 39.3229 90.3344 39.0445 89.9856C38.766 89.6369 38.4019 89.3663 37.9876 89.2003L33.851 87.5218C32.5109 86.9821 31.4205 85.9616 30.7933 84.6602C30.1661 83.3587 30.0473 81.87 30.4602 80.4855L31.7246 76.198C31.8488 75.7715 31.8622 75.3203 31.7635 74.8872C31.6648 74.454 31.4572 74.0532 31.1604 73.7227L28.1577 70.4001C27.188 69.3327 26.6507 67.9423 26.6506 66.5002C26.6504 65.0581 27.1875 63.6676 28.1569 62.6L31.1612 59.2759C31.4577 58.9449 31.6652 58.5439 31.7639 58.1105C31.8626 57.6772 31.8493 57.2258 31.7254 56.799L30.4602 52.5115C30.0477 51.1271 30.1666 49.6385 30.7938 48.3371C31.4209 47.0357 32.5111 46.0152 33.851 45.4752L37.9916 43.7951C38.4033 43.6265 38.7651 43.3555 39.0428 43.0078C39.3204 42.6602 39.5047 42.2474 39.5782 41.8086L40.2995 37.3938C40.5254 35.9676 41.2764 34.6774 42.405 33.7767C43.5337 32.8761 44.9583 32.4301 46.3991 32.5264L50.8657 32.803C51.3097 32.8314 51.7535 32.7448 52.1543 32.5515C52.555 32.3582 52.8991 32.0648 53.1533 31.6997L55.7175 28.0377C56.5426 26.8518 57.7808 26.0167 59.1895 25.696C60.5982 25.3753 62.0759 25.5922 63.333 26.3042L67.2276 28.492C67.6171 28.7084 68.0554 28.822 68.501 28.822C68.9466 28.822 69.3849 28.7084 69.7744 28.492L73.6697 26.3026C74.9269 25.5922 76.4039 25.3761 77.812 25.6967C79.22 26.0173 80.4579 26.8515 81.2836 28.0362L83.8494 31.7013C84.1049 32.0649 84.4491 32.357 84.8494 32.5498C85.2497 32.7427 85.6927 32.8298 86.1362 32.803L90.6044 32.528C92.0434 32.4391 93.4642 32.8879 94.5911 33.7873C95.718 34.6866 96.4707 35.9725 96.7032 37.3954L97.4245 41.8102C97.4978 42.2493 97.682 42.6623 97.9597 43.0102C98.2374 43.3582 98.5992 43.6294 99.0111 43.7983L103.149 45.4769C104.49 46.0165 105.58 47.0372 106.208 48.339C106.835 49.6408 106.954 51.13 106.541 52.5147L105.276 56.8006C105.152 57.2271 105.139 57.6782 105.237 58.1114C105.336 58.5446 105.543 58.9454 105.84 59.276L108.842 62.5985C109.812 63.666 110.349 65.0563 110.349 66.4984C110.349 67.9405 109.813 69.3309 108.843 70.3986L105.841 73.7226C105.544 74.0534 105.336 74.4544 105.237 74.8878C105.138 75.3212 105.151 75.7727 105.276 76.1995L106.54 80.487C106.953 81.8715 106.834 83.3603 106.207 84.6618C105.58 85.9633 104.49 86.9838 103.149 87.5233L99.0095 89.2034C98.5975 89.3722 98.2354 89.6434 97.9576 89.9913C97.6798 90.3393 97.4955 90.7524 97.4221 91.1916L96.7016 95.6048C96.4706 97.0287 95.7181 98.3158 94.5905 99.2155C93.4629 100.115 92.0408 100.563 90.6012 100.472L86.1361 100.197C85.6918 100.169 85.2478 100.256 84.8468 100.449C84.4458 100.643 84.1012 100.936 83.8462 101.3L81.2836 104.961C80.7496 105.729 80.0378 106.356 79.209 106.789C78.3803 107.222 77.459 107.449 76.5238 107.449ZM68.5005 100.961C69.4983 100.96 70.4797 101.215 71.3507 101.701L75.2453 103.891C75.8067 104.209 76.4668 104.306 77.0961 104.163C77.7254 104.019 78.2784 103.646 78.6464 103.116L81.2097 99.4538C81.7846 98.6415 82.5566 97.9887 83.4532 97.5568C84.3497 97.1248 85.3414 96.928 86.3349 96.9847L90.8 97.2597C91.4436 97.3031 92.0802 97.1041 92.5845 96.7019C93.0888 96.2997 93.4244 95.7233 93.5252 95.0861L94.2458 90.6729C94.4098 89.6895 94.8223 88.7643 95.4442 87.9851C96.0661 87.2058 96.8768 86.5984 97.7993 86.2204L101.938 84.5403C102.537 84.2995 103.024 83.8439 103.304 83.2628C103.584 82.6817 103.638 82.0169 103.453 81.3986L102.189 77.1111C101.911 76.1555 101.881 75.1446 102.102 74.1741C102.323 73.2036 102.788 72.3055 103.453 71.5648L106.454 68.2422L106.455 68.2406C106.888 67.7635 107.128 67.1424 107.128 66.4983C107.127 65.8542 106.887 65.2332 106.454 64.7563L103.453 61.4354C102.788 60.6946 102.323 59.7965 102.102 58.826C101.881 57.8555 101.911 56.8447 102.19 55.8891L103.454 51.6032C103.639 50.9846 103.585 50.3194 103.305 49.7379C103.025 49.1565 102.537 48.7007 101.938 48.4599L97.8009 46.7813C96.8784 46.4034 96.0678 45.796 95.446 45.0167C94.8243 44.2374 94.4119 43.3122 94.2482 42.3288L93.5268 37.9141C93.4203 37.2799 93.0835 36.7073 92.5808 36.3062C92.0782 35.905 91.4452 35.7036 90.8031 35.7405L86.3349 36.0155C85.3415 36.076 84.3491 35.8809 83.4525 35.449C82.5558 35.0171 81.7848 34.3626 81.2129 33.5481L78.6471 29.8829C78.278 29.3542 77.7253 28.9819 77.0966 28.8387C76.468 28.6954 75.8085 28.7915 75.2468 29.108L71.3499 31.299C70.4788 31.7844 69.4982 32.0392 68.5009 32.0392C67.5037 32.0392 66.523 31.7844 65.6519 31.299L61.7558 29.1096C61.1942 28.7917 60.5341 28.6949 59.9048 28.8382C59.2756 28.9815 58.7225 29.3546 58.354 29.8844L55.7906 33.5448C55.2197 34.3608 54.4488 35.0166 53.5518 35.4492C52.6548 35.8818 51.6618 36.0768 50.6678 36.0155L46.1995 35.7389C45.5576 35.7024 44.9248 35.904 44.4223 36.3051C43.9197 36.7061 43.5827 37.2784 43.4759 37.9125L42.7545 42.3272C42.5905 43.3103 42.178 44.2352 41.5563 45.0142C40.9345 45.7931 40.1241 46.4003 39.2018 46.7782L35.062 48.4583C34.4635 48.6996 33.9766 49.1555 33.6964 49.7368C33.4162 50.3181 33.3629 50.9831 33.5469 51.6016L34.8121 55.8875C35.0903 56.8431 35.1203 57.8538 34.8993 58.8242C34.6784 59.7947 34.2138 60.6928 33.5493 61.4338L30.5451 64.7579C30.1123 65.2346 29.8726 65.8554 29.8726 66.4993C29.8726 67.1431 30.1123 67.7639 30.5451 68.2407L33.5477 71.5631C34.2126 72.3039 34.6776 73.202 34.8987 74.1725C35.1198 75.143 35.0897 76.1538 34.8113 77.1095L33.5469 81.397C33.3627 82.0153 33.4159 82.6801 33.6961 83.2612C33.9764 83.8424 34.4635 84.2979 35.062 84.5388L39.1993 86.2173C40.1218 86.5959 40.9323 87.2037 41.5541 87.9831C42.176 88.7626 42.5886 89.6879 42.7528 90.6714L43.4734 95.0846C43.578 95.7197 43.9143 96.2935 44.4174 96.695C44.9205 97.0965 45.5546 97.2971 46.1971 97.2582L50.6653 96.9831C51.6592 96.9198 52.6527 97.1136 53.55 97.5458C54.4473 97.978 55.2181 98.634 55.7882 99.4506L58.3531 103.116C58.7212 103.646 59.2742 104.019 59.9034 104.163C60.5326 104.306 61.1927 104.209 61.7541 103.891L65.6511 101.701C66.5218 101.214 67.503 100.959 68.5005 100.961Z" fill="black"/>
</svg>
