<svg width="52" height="52" viewBox="0 0 52 52" fill="none" xmlns="http://www.w3.org/2000/svg">
<path d="M34.6125 9.99375C39.7617 9.99375 43.9461 14.1883 43.9461 19.368C43.9461 22.0289 42.8391 24.4258 41.0719 26.132L26 41.3461L10.6641 25.8578C9.05938 24.1719 8.06406 21.8867 8.06406 19.368C8.06406 14.1883 12.2383 9.99375 17.3977 9.99375C21.2773 9.99375 24.5984 12.3703 26.0102 15.7625C27.4016 12.3805 30.7328 9.99375 34.6125 9.99375ZM34.6125 8.42969C31.1797 8.42969 28.0312 10.0344 26 12.675C23.9688 10.0344 20.8203 8.42969 17.3875 8.42969C11.3852 8.42969 6.5 13.3352 6.5 19.368C6.5 22.2016 7.57656 24.893 9.53672 26.9445L24.893 42.4531L26 43.5703L27.107 42.4531L42.1688 27.2391C44.3016 25.1773 45.5 22.3742 45.5 19.368C45.5 13.3352 40.6148 8.42969 34.6125 8.42969Z" fill="black"/>
<path d="M38.2384 3C45.2898 3 51 8.64657 51 15.6072C51 28.2144 38.2384 35.3927 25.4931 48C12.7465 35.3927 0 28.2144 0 15.6073C0 8.64669 5.71014 3.00012 12.7465 3.00012C19.1191 3.00012 22.3061 6.1522 25.4931 12.4552C28.6787 6.1522 31.8657 3 38.2384 3Z" fill="#FF7979"/>
</svg>
