<svg width="110" height="110" viewBox="0 0 110 110" fill="none" xmlns="http://www.w3.org/2000/svg">
<path d="M55.0215 91.1367C64.668 91.1367 73.7344 87.377 80.5664 80.5449C86.9043 74.2071 90.6426 65.7852 91.0937 56.8262C91.1367 55.9453 90.4492 55.1719 89.5684 55.1289C88.6875 55.086 87.9141 55.7735 87.8711 56.6543C87.4629 64.7969 84.0469 72.4668 78.2676 78.2461C72.0586 84.4551 63.7871 87.8926 55 87.8926C46.2129 87.8926 37.9414 84.4766 31.7324 78.2461C18.9062 65.4199 18.9062 44.5371 31.7324 31.711C42.668 20.7754 59.6836 18.9493 72.6172 27.1778L68.9863 31.625L79.4062 30.5723L78.3535 20.1524L74.6797 24.6641C60.4355 15.3828 41.5508 17.3379 29.4551 29.4336C15.3613 43.5274 15.3613 66.4297 29.4551 80.5235C36.3086 87.377 45.375 91.1367 55.0215 91.1367Z" fill="black"/>
<path d="M72.0586 47.5664C72.0586 47.5449 72.0586 47.5234 72.0371 47.5234C72.0371 47.4805 72.0156 47.459 72.0156 47.416C72.0156 47.3945 71.9941 47.3516 71.9941 47.3301C71.9941 47.3086 71.9727 47.2871 71.9727 47.2656C71.9297 47.1582 71.8867 47.0723 71.8223 46.9863L64.9902 36.9531C64.6895 36.502 64.1953 36.2441 63.6582 36.2441H46.3418C45.8047 36.2441 45.3105 36.502 45.0098 36.9531L38.1777 46.9648C38.1133 47.0508 38.0703 47.1582 38.0273 47.2441C38.0273 47.2656 38.0059 47.2871 38.0059 47.3086C37.9844 47.3301 37.9844 47.373 37.9844 47.3945C37.9844 47.4375 37.9629 47.459 37.9629 47.502C37.9629 47.5234 37.9629 47.5449 37.9414 47.5449C37.9199 47.6523 37.8984 47.7598 37.8984 47.8672V72.123C37.8984 73.0039 38.6289 73.7344 39.5098 73.7344H70.4688C71.3496 73.7344 72.0801 73.0039 72.0801 72.123V47.8887C72.0801 47.7598 72.0801 47.6523 72.0586 47.5664ZM47.2012 39.4668H62.7988L67.418 46.2559H42.5605L47.2012 39.4668ZM68.8574 70.5332H41.1426V49.5H68.8789V70.5332H68.8574Z" fill="black"/>
</svg>
